<svg width="21" height="20" viewBox="0 0 21 20" fill="none" xmlns="http://www.w3.org/2000/svg">
<g id="Icon/AI">
<path id="Vector" fill-rule="evenodd" clip-rule="evenodd" d="M16.3333 1.66663C16.6023 2.9192 17.5807 3.89765 18.8333 4.16663C17.5807 4.4356 16.6023 5.41405 16.3333 6.66663C16.0643 5.41405 15.0859 4.4356 13.8333 4.16663C15.0859 3.89765 16.0643 2.9192 16.3333 1.66663ZM8.06 1.8333C8.81958 5.37056 11.5827 8.13371 15.12 8.89329C11.5827 9.65288 8.81958 12.416 8.06 15.9533C7.30042 12.416 4.53726 9.65288 1 8.89329C4.53726 8.13371 7.30042 5.37056 8.06 1.8333ZM18.8333 15C17.1632 14.6413 15.8586 13.3367 15.5 11.6666C15.1413 13.3367 13.8367 14.6413 12.1666 15C13.8367 15.3586 15.1413 16.6632 15.5 18.3333C15.8586 16.6632 17.1632 15.3586 18.8333 15Z" fill="#387FF5"/>
</g>
</svg>
